<svg xmlns="http://www.w3.org/2000/svg" width="800" height="600" viewBox="0 0 800 600" fill="none">
<defs><clipPath id="eye"><path d="M103 306C111 174 238 89 400 85C563 81 694 171 701 302C708 425 577 503 406 506C238 509 97 432 103 306Z"/></clipPath></defs>
<rect width="800" height="600" rx="32" fill="#EDEDED"/>
<ellipse cx="400" cy="322" rx="308" ry="215" fill="#C6C6C6" opacity=".35"/>
<g clip-path="url(#eye)"><polygon points="96.5,64.0 70.5,79.0 44.5,64.0 44.5,34.0 70.5,19.0 96.5,34.0" fill="rgb(178,178,178)" stroke="#676767" stroke-width="3" stroke-linejoin="round"/><path d="M54.5 32Q70.5 23 85.5 33" stroke="#E1E1E1" stroke-width="3" stroke-linecap="round" opacity=".72"/><polygon points="149.5,64.0 123.5,79.0 97.5,64.0 97.5,34.0 123.5,19.0 149.5,34.0" fill="rgb(184,184,184)" stroke="#676767" stroke-width="3" stroke-linejoin="round"/><path d="M107.5 32Q123.5 23 138.5 33" stroke="#E1E1E1" stroke-width="3" stroke-linecap="round" opacity=".72"/><polygon points="202.5,64.0 176.5,79.0 150.5,64.0 150.5,34.0 176.5,19.0 202.5,34.0" fill="rgb(188,188,188)" stroke="#676767" stroke-width="3" stroke-linejoin="round"/><path d="M160.5 32Q176.5 23 191.5 33" stroke="#E1E1E1" stroke-width="3" stroke-linecap="round" opacity=".72"/><polygon points="255.5,64.0 229.5,79.0 203.5,64.0 203.5,34.0 229.5,19.0 255.5,34.0" fill="rgb(191,191,191)" stroke="#676767" stroke-width="3" stroke-linejoin="round"/><path d="M213.5 32Q229.5 23 244.5 33" stroke="#E1E1E1" stroke-width="3" stroke-linecap="round" opacity=".72"/><polygon points="308.5,64.0 282.5,79.0 256.5,64.0 256.5,34.0 282.5,19.0 308.5,34.0" fill="rgb(193,193,193)" stroke="#676767" stroke-width="3" stroke-linejoin="round"/><path d="M266.5 32Q282.5 23 297.5 33" stroke="#E1E1E1" stroke-width="3" stroke-linecap="round" opacity=".72"/><polygon points="361.5,64.0 335.5,79.0 309.5,64.0 309.5,34.0 335.5,19.0 361.5,34.0" fill="rgb(194,194,194)" stroke="#676767" stroke-width="3" stroke-linejoin="round"/><path d="M319.5 32Q335.5 23 350.5 33" stroke="#E1E1E1" stroke-width="3" stroke-linecap="round" opacity=".72"/><polygon points="414.5,64.0 388.5,79.0 362.5,64.0 362.5,34.0 388.5,19.0 414.5,34.0" fill="rgb(193,193,193)" stroke="#676767" stroke-width="3" stroke-linejoin="round"/><path d="M372.5 32Q388.5 23 403.5 33" stroke="#E1E1E1" stroke-width="3" stroke-linecap="round" opacity=".72"/><polygon points="467.5,64.0 441.5,79.0 415.5,64.0 415.5,34.0 441.5,19.0 467.5,34.0" fill="rgb(191,191,191)" stroke="#676767" stroke-width="3" stroke-linejoin="round"/><path d="M425.5 32Q441.5 23 456.5 33" stroke="#E1E1E1" stroke-width="3" stroke-linecap="round" opacity=".72"/><polygon points="520.5,64.0 494.5,79.0 468.5,64.0 468.5,34.0 494.5,19.0 520.5,34.0" fill="rgb(187,187,187)" stroke="#676767" stroke-width="3" stroke-linejoin="round"/><path d="M478.5 32Q494.5 23 509.5 33" stroke="#E1E1E1" stroke-width="3" stroke-linecap="round" opacity=".72"/><polygon points="573.5,64.0 547.5,79.0 521.5,64.0 521.5,34.0 547.5,19.0 573.5,34.0" fill="rgb(183,183,183)" stroke="#676767" stroke-width="3" stroke-linejoin="round"/><path d="M531.5 32Q547.5 23 562.5 33" stroke="#E1E1E1" stroke-width="3" stroke-linecap="round" opacity=".72"/><polygon points="626.5,64.0 600.5,79.0 574.5,64.0 574.5,34.0 600.5,19.0 626.5,34.0" fill="rgb(177,177,177)" stroke="#676767" stroke-width="3" stroke-linejoin="round"/><path d="M584.5 32Q600.5 23 615.5 33" stroke="#E1E1E1" stroke-width="3" stroke-linecap="round" opacity=".72"/><polygon points="679.5,64.0 653.5,79.0 627.5,64.0 627.5,34.0 653.5,19.0 679.5,34.0" fill="rgb(169,169,169)" stroke="#676767" stroke-width="3" stroke-linejoin="round"/><path d="M637.5 32Q653.5 23 668.5 33" stroke="#E1E1E1" stroke-width="3" stroke-linecap="round" opacity=".72"/><polygon points="732.5,64.0 706.5,79.0 680.5,64.0 680.5,34.0 706.5,19.0 732.5,34.0" fill="rgb(161,161,161)" stroke="#676767" stroke-width="3" stroke-linejoin="round"/><path d="M690.5 32Q706.5 23 721.5 33" stroke="#E1E1E1" stroke-width="3" stroke-linecap="round" opacity=".72"/><polygon points="785.5,64.0 759.5,79.0 733.5,64.0 733.5,34.0 759.5,19.0 785.5,34.0" fill="rgb(151,151,151)" stroke="#676767" stroke-width="3" stroke-linejoin="round"/><path d="M743.5 32Q759.5 23 774.5 33" stroke="#E1E1E1" stroke-width="3" stroke-linecap="round" opacity=".72"/><polygon points="70.0,110.0 44.0,125.0 18.0,110.0 18.0,80.0 44.0,65.0 70.0,80.0" fill="rgb(177,177,177)" stroke="#676767" stroke-width="3" stroke-linejoin="round"/><path d="M28 78Q44 69 59 79" stroke="#E1E1E1" stroke-width="3" stroke-linecap="round" opacity=".72"/><polygon points="123.0,110.0 97.0,125.0 71.0,110.0 71.0,80.0 97.0,65.0 123.0,80.0" fill="rgb(184,184,184)" stroke="#676767" stroke-width="3" stroke-linejoin="round"/><path d="M81 78Q97 69 112 79" stroke="#E1E1E1" stroke-width="3" stroke-linecap="round" opacity=".72"/><polygon points="176.0,110.0 150.0,125.0 124.0,110.0 124.0,80.0 150.0,65.0 176.0,80.0" fill="rgb(189,189,189)" stroke="#676767" stroke-width="3" stroke-linejoin="round"/><path d="M134 78Q150 69 165 79" stroke="#E1E1E1" stroke-width="3" stroke-linecap="round" opacity=".72"/><polygon points="229.0,110.0 203.0,125.0 177.0,110.0 177.0,80.0 203.0,65.0 229.0,80.0" fill="rgb(193,193,193)" stroke="#676767" stroke-width="3" stroke-linejoin="round"/><path d="M187 78Q203 69 218 79" stroke="#E1E1E1" stroke-width="3" stroke-linecap="round" opacity=".72"/><polygon points="282.0,110.0 256.0,125.0 230.0,110.0 230.0,80.0 256.0,65.0 282.0,80.0" fill="rgb(195,195,195)" stroke="#676767" stroke-width="3" stroke-linejoin="round"/><path d="M240 78Q256 69 271 79" stroke="#E1E1E1" stroke-width="3" stroke-linecap="round" opacity=".72"/><polygon points="335.0,110.0 309.0,125.0 283.0,110.0 283.0,80.0 309.0,65.0 335.0,80.0" fill="rgb(196,196,196)" stroke="#676767" stroke-width="3" stroke-linejoin="round"/><path d="M293 78Q309 69 324 79" stroke="#E1E1E1" stroke-width="3" stroke-linecap="round" opacity=".72"/><polygon points="388.0,110.0 362.0,125.0 336.0,110.0 336.0,80.0 362.0,65.0 388.0,80.0" fill="rgb(196,196,196)" stroke="#676767" stroke-width="3" stroke-linejoin="round"/><path d="M346 78Q362 69 377 79" stroke="#E1E1E1" stroke-width="3" stroke-linecap="round" opacity=".72"/><polygon points="441.0,110.0 415.0,125.0 389.0,110.0 389.0,80.0 415.0,65.0 441.0,80.0" fill="rgb(195,195,195)" stroke="#676767" stroke-width="3" stroke-linejoin="round"/><path d="M399 78Q415 69 430 79" stroke="#E1E1E1" stroke-width="3" stroke-linecap="round" opacity=".72"/><polygon points="494.0,110.0 468.0,125.0 442.0,110.0 442.0,80.0 468.0,65.0 494.0,80.0" fill="rgb(192,192,192)" stroke="#676767" stroke-width="3" stroke-linejoin="round"/><path d="M452 78Q468 69 483 79" stroke="#E1E1E1" stroke-width="3" stroke-linecap="round" opacity=".72"/><polygon points="547.0,110.0 521.0,125.0 495.0,110.0 495.0,80.0 521.0,65.0 547.0,80.0" fill="rgb(188,188,188)" stroke="#676767" stroke-width="3" stroke-linejoin="round"/><path d="M505 78Q521 69 536 79" stroke="#E1E1E1" stroke-width="3" stroke-linecap="round" opacity=".72"/><polygon points="600.0,110.0 574.0,125.0 548.0,110.0 548.0,80.0 574.0,65.0 600.0,80.0" fill="rgb(183,183,183)" stroke="#676767" stroke-width="3" stroke-linejoin="round"/><path d="M558 78Q574 69 589 79" stroke="#E1E1E1" stroke-width="3" stroke-linecap="round" opacity=".72"/><polygon points="653.0,110.0 627.0,125.0 601.0,110.0 601.0,80.0 627.0,65.0 653.0,80.0" fill="rgb(176,176,176)" stroke="#676767" stroke-width="3" stroke-linejoin="round"/><path d="M611 78Q627 69 642 79" stroke="#E1E1E1" stroke-width="3" stroke-linecap="round" opacity=".72"/><polygon points="706.0,110.0 680.0,125.0 654.0,110.0 654.0,80.0 680.0,65.0 706.0,80.0" fill="rgb(168,168,168)" stroke="#676767" stroke-width="3" stroke-linejoin="round"/><path d="M664 78Q680 69 695 79" stroke="#E1E1E1" stroke-width="3" stroke-linecap="round" opacity=".72"/><polygon points="759.0,110.0 733.0,125.0 707.0,110.0 707.0,80.0 733.0,65.0 759.0,80.0" fill="rgb(159,159,159)" stroke="#676767" stroke-width="3" stroke-linejoin="round"/><path d="M717 78Q733 69 748 79" stroke="#E1E1E1" stroke-width="3" stroke-linecap="round" opacity=".72"/><polygon points="96.5,156.0 70.5,171.0 44.5,156.0 44.5,126.0 70.5,111.0 96.5,126.0" fill="rgb(183,183,183)" stroke="#676767" stroke-width="3" stroke-linejoin="round"/><path d="M54.5 124Q70.5 115 85.5 125" stroke="#E1E1E1" stroke-width="3" stroke-linecap="round" opacity=".72"/><polygon points="149.5,156.0 123.5,171.0 97.5,156.0 97.5,126.0 123.5,111.0 149.5,126.0" fill="rgb(188,188,188)" stroke="#676767" stroke-width="3" stroke-linejoin="round"/><path d="M107.5 124Q123.5 115 138.5 125" stroke="#E1E1E1" stroke-width="3" stroke-linecap="round" opacity=".72"/><polygon points="202.5,156.0 176.5,171.0 150.5,156.0 150.5,126.0 176.5,111.0 202.5,126.0" fill="rgb(193,193,193)" stroke="#676767" stroke-width="3" stroke-linejoin="round"/><path d="M160.5 124Q176.5 115 191.5 125" stroke="#E1E1E1" stroke-width="3" stroke-linecap="round" opacity=".72"/><polygon points="255.5,156.0 229.5,171.0 203.5,156.0 203.5,126.0 229.5,111.0 255.5,126.0" fill="rgb(196,196,196)" stroke="#676767" stroke-width="3" stroke-linejoin="round"/><path d="M213.5 124Q229.5 115 244.5 125" stroke="#E1E1E1" stroke-width="3" stroke-linecap="round" opacity=".72"/><polygon points="308.5,156.0 282.5,171.0 256.5,156.0 256.5,126.0 282.5,111.0 308.5,126.0" fill="rgb(198,198,198)" stroke="#676767" stroke-width="3" stroke-linejoin="round"/><path d="M266.5 124Q282.5 115 297.5 125" stroke="#E1E1E1" stroke-width="3" stroke-linecap="round" opacity=".72"/><polygon points="361.5,156.0 335.5,171.0 309.5,156.0 309.5,126.0 335.5,111.0 361.5,126.0" fill="rgb(198,198,198)" stroke="#676767" stroke-width="3" stroke-linejoin="round"/><path d="M319.5 124Q335.5 115 350.5 125" stroke="#E1E1E1" stroke-width="3" stroke-linecap="round" opacity=".72"/><polygon points="414.5,156.0 388.5,171.0 362.5,156.0 362.5,126.0 388.5,111.0 414.5,126.0" fill="rgb(197,197,197)" stroke="#676767" stroke-width="3" stroke-linejoin="round"/><path d="M372.5 124Q388.5 115 403.5 125" stroke="#E1E1E1" stroke-width="3" stroke-linecap="round" opacity=".72"/><polygon points="467.5,156.0 441.5,171.0 415.5,156.0 415.5,126.0 441.5,111.0 467.5,126.0" fill="rgb(195,195,195)" stroke="#676767" stroke-width="3" stroke-linejoin="round"/><path d="M425.5 124Q441.5 115 456.5 125" stroke="#E1E1E1" stroke-width="3" stroke-linecap="round" opacity=".72"/><polygon points="520.5,156.0 494.5,171.0 468.5,156.0 468.5,126.0 494.5,111.0 520.5,126.0" fill="rgb(192,192,192)" stroke="#676767" stroke-width="3" stroke-linejoin="round"/><path d="M478.5 124Q494.5 115 509.5 125" stroke="#E1E1E1" stroke-width="3" stroke-linecap="round" opacity=".72"/><polygon points="573.5,156.0 547.5,171.0 521.5,156.0 521.5,126.0 547.5,111.0 573.5,126.0" fill="rgb(187,187,187)" stroke="#676767" stroke-width="3" stroke-linejoin="round"/><path d="M531.5 124Q547.5 115 562.5 125" stroke="#E1E1E1" stroke-width="3" stroke-linecap="round" opacity=".72"/><polygon points="626.5,156.0 600.5,171.0 574.5,156.0 574.5,126.0 600.5,111.0 626.5,126.0" fill="rgb(181,181,181)" stroke="#676767" stroke-width="3" stroke-linejoin="round"/><path d="M584.5 124Q600.5 115 615.5 125" stroke="#E1E1E1" stroke-width="3" stroke-linecap="round" opacity=".72"/><polygon points="679.5,156.0 653.5,171.0 627.5,156.0 627.5,126.0 653.5,111.0 679.5,126.0" fill="rgb(174,174,174)" stroke="#676767" stroke-width="3" stroke-linejoin="round"/><path d="M637.5 124Q653.5 115 668.5 125" stroke="#E1E1E1" stroke-width="3" stroke-linecap="round" opacity=".72"/><polygon points="732.5,156.0 706.5,171.0 680.5,156.0 680.5,126.0 706.5,111.0 732.5,126.0" fill="rgb(165,165,165)" stroke="#676767" stroke-width="3" stroke-linejoin="round"/><path d="M690.5 124Q706.5 115 721.5 125" stroke="#E1E1E1" stroke-width="3" stroke-linecap="round" opacity=".72"/><polygon points="785.5,156.0 759.5,171.0 733.5,156.0 733.5,126.0 759.5,111.0 785.5,126.0" fill="rgb(155,155,155)" stroke="#676767" stroke-width="3" stroke-linejoin="round"/><path d="M743.5 124Q759.5 115 774.5 125" stroke="#E1E1E1" stroke-width="3" stroke-linecap="round" opacity=".72"/><polygon points="70.0,202.0 44.0,217.0 18.0,202.0 18.0,172.0 44.0,157.0 70.0,172.0" fill="rgb(180,180,180)" stroke="#676767" stroke-width="3" stroke-linejoin="round"/><path d="M28 170Q44 161 59 171" stroke="#E1E1E1" stroke-width="3" stroke-linecap="round" opacity=".72"/><polygon points="123.0,202.0 97.0,217.0 71.0,202.0 71.0,172.0 97.0,157.0 123.0,172.0" fill="rgb(186,186,186)" stroke="#676767" stroke-width="3" stroke-linejoin="round"/><path d="M81 170Q97 161 112 171" stroke="#E1E1E1" stroke-width="3" stroke-linecap="round" opacity=".72"/><polygon points="176.0,202.0 150.0,217.0 124.0,202.0 124.0,172.0 150.0,157.0 176.0,172.0" fill="rgb(191,191,191)" stroke="#676767" stroke-width="3" stroke-linejoin="round"/><path d="M134 170Q150 161 165 171" stroke="#E1E1E1" stroke-width="3" stroke-linecap="round" opacity=".72"/><polygon points="229.0,202.0 203.0,217.0 177.0,202.0 177.0,172.0 203.0,157.0 229.0,172.0" fill="rgb(195,195,195)" stroke="#676767" stroke-width="3" stroke-linejoin="round"/><path d="M187 170Q203 161 218 171" stroke="#E1E1E1" stroke-width="3" stroke-linecap="round" opacity=".72"/><polygon points="282.0,202.0 256.0,217.0 230.0,202.0 230.0,172.0 256.0,157.0 282.0,172.0" fill="rgb(198,198,198)" stroke="#676767" stroke-width="3" stroke-linejoin="round"/><path d="M240 170Q256 161 271 171" stroke="#E1E1E1" stroke-width="3" stroke-linecap="round" opacity=".72"/><polygon points="335.0,202.0 309.0,217.0 283.0,202.0 283.0,172.0 309.0,157.0 335.0,172.0" fill="rgb(199,199,199)" stroke="#676767" stroke-width="3" stroke-linejoin="round"/><path d="M293 170Q309 161 324 171" stroke="#E1E1E1" stroke-width="3" stroke-linecap="round" opacity=".72"/><polygon points="388.0,202.0 362.0,217.0 336.0,202.0 336.0,172.0 362.0,157.0 388.0,172.0" fill="rgb(199,199,199)" stroke="#676767" stroke-width="3" stroke-linejoin="round"/><path d="M346 170Q362 161 377 171" stroke="#E1E1E1" stroke-width="3" stroke-linecap="round" opacity=".72"/><polygon points="441.0,202.0 415.0,217.0 389.0,202.0 389.0,172.0 415.0,157.0 441.0,172.0" fill="rgb(197,197,197)" stroke="#676767" stroke-width="3" stroke-linejoin="round"/><path d="M399 170Q415 161 430 171" stroke="#E1E1E1" stroke-width="3" stroke-linecap="round" opacity=".72"/><polygon points="494.0,202.0 468.0,217.0 442.0,202.0 442.0,172.0 468.0,157.0 494.0,172.0" fill="rgb(195,195,195)" stroke="#676767" stroke-width="3" stroke-linejoin="round"/><path d="M452 170Q468 161 483 171" stroke="#E1E1E1" stroke-width="3" stroke-linecap="round" opacity=".72"/><polygon points="547.0,202.0 521.0,217.0 495.0,202.0 495.0,172.0 521.0,157.0 547.0,172.0" fill="rgb(190,190,190)" stroke="#676767" stroke-width="3" stroke-linejoin="round"/><path d="M505 170Q521 161 536 171" stroke="#E1E1E1" stroke-width="3" stroke-linecap="round" opacity=".72"/><polygon points="600.0,202.0 574.0,217.0 548.0,202.0 548.0,172.0 574.0,157.0 600.0,172.0" fill="rgb(185,185,185)" stroke="#676767" stroke-width="3" stroke-linejoin="round"/><path d="M558 170Q574 161 589 171" stroke="#E1E1E1" stroke-width="3" stroke-linecap="round" opacity=".72"/><polygon points="653.0,202.0 627.0,217.0 601.0,202.0 601.0,172.0 627.0,157.0 653.0,172.0" fill="rgb(178,178,178)" stroke="#676767" stroke-width="3" stroke-linejoin="round"/><path d="M611 170Q627 161 642 171" stroke="#E1E1E1" stroke-width="3" stroke-linecap="round" opacity=".72"/><polygon points="706.0,202.0 680.0,217.0 654.0,202.0 654.0,172.0 680.0,157.0 706.0,172.0" fill="rgb(170,170,170)" stroke="#676767" stroke-width="3" stroke-linejoin="round"/><path d="M664 170Q680 161 695 171" stroke="#E1E1E1" stroke-width="3" stroke-linecap="round" opacity=".72"/><polygon points="759.0,202.0 733.0,217.0 707.0,202.0 707.0,172.0 733.0,157.0 759.0,172.0" fill="rgb(161,161,161)" stroke="#676767" stroke-width="3" stroke-linejoin="round"/><path d="M717 170Q733 161 748 171" stroke="#E1E1E1" stroke-width="3" stroke-linecap="round" opacity=".72"/><polygon points="96.5,248.0 70.5,263.0 44.5,248.0 44.5,218.0 70.5,203.0 96.5,218.0" fill="rgb(183,183,183)" stroke="#676767" stroke-width="3" stroke-linejoin="round"/><path d="M54.5 216Q70.5 207 85.5 217" stroke="#E1E1E1" stroke-width="3" stroke-linecap="round" opacity=".72"/><polygon points="149.5,248.0 123.5,263.0 97.5,248.0 97.5,218.0 123.5,203.0 149.5,218.0" fill="rgb(189,189,189)" stroke="#676767" stroke-width="3" stroke-linejoin="round"/><path d="M107.5 216Q123.5 207 138.5 217" stroke="#E1E1E1" stroke-width="3" stroke-linecap="round" opacity=".72"/><polygon points="202.5,248.0 176.5,263.0 150.5,248.0 150.5,218.0 176.5,203.0 202.5,218.0" fill="rgb(193,193,193)" stroke="#676767" stroke-width="3" stroke-linejoin="round"/><path d="M160.5 216Q176.5 207 191.5 217" stroke="#E1E1E1" stroke-width="3" stroke-linecap="round" opacity=".72"/><polygon points="255.5,248.0 229.5,263.0 203.5,248.0 203.5,218.0 229.5,203.0 255.5,218.0" fill="rgb(196,196,196)" stroke="#676767" stroke-width="3" stroke-linejoin="round"/><path d="M213.5 216Q229.5 207 244.5 217" stroke="#E1E1E1" stroke-width="3" stroke-linecap="round" opacity=".72"/><polygon points="308.5,248.0 282.5,263.0 256.5,248.0 256.5,218.0 282.5,203.0 308.5,218.0" fill="rgb(198,198,198)" stroke="#676767" stroke-width="3" stroke-linejoin="round"/><path d="M266.5 216Q282.5 207 297.5 217" stroke="#E1E1E1" stroke-width="3" stroke-linecap="round" opacity=".72"/><polygon points="361.5,248.0 335.5,263.0 309.5,248.0 309.5,218.0 335.5,203.0 361.5,218.0" fill="rgb(199,199,199)" stroke="#676767" stroke-width="3" stroke-linejoin="round"/><path d="M319.5 216Q335.5 207 350.5 217" stroke="#E1E1E1" stroke-width="3" stroke-linecap="round" opacity=".72"/><polygon points="414.5,248.0 388.5,263.0 362.5,248.0 362.5,218.0 388.5,203.0 414.5,218.0" fill="rgb(198,198,198)" stroke="#676767" stroke-width="3" stroke-linejoin="round"/><path d="M372.5 216Q388.5 207 403.5 217" stroke="#E1E1E1" stroke-width="3" stroke-linecap="round" opacity=".72"/><polygon points="467.5,248.0 441.5,263.0 415.5,248.0 415.5,218.0 441.5,203.0 467.5,218.0" fill="rgb(196,196,196)" stroke="#676767" stroke-width="3" stroke-linejoin="round"/><path d="M425.5 216Q441.5 207 456.5 217" stroke="#E1E1E1" stroke-width="3" stroke-linecap="round" opacity=".72"/><polygon points="520.5,248.0 494.5,263.0 468.5,248.0 468.5,218.0 494.5,203.0 520.5,218.0" fill="rgb(192,192,192)" stroke="#676767" stroke-width="3" stroke-linejoin="round"/><path d="M478.5 216Q494.5 207 509.5 217" stroke="#E1E1E1" stroke-width="3" stroke-linecap="round" opacity=".72"/><polygon points="573.5,248.0 547.5,263.0 521.5,248.0 521.5,218.0 547.5,203.0 573.5,218.0" fill="rgb(188,188,188)" stroke="#676767" stroke-width="3" stroke-linejoin="round"/><path d="M531.5 216Q547.5 207 562.5 217" stroke="#E1E1E1" stroke-width="3" stroke-linecap="round" opacity=".72"/><polygon points="626.5,248.0 600.5,263.0 574.5,248.0 574.5,218.0 600.5,203.0 626.5,218.0" fill="rgb(182,182,182)" stroke="#676767" stroke-width="3" stroke-linejoin="round"/><path d="M584.5 216Q600.5 207 615.5 217" stroke="#E1E1E1" stroke-width="3" stroke-linecap="round" opacity=".72"/><polygon points="679.5,248.0 653.5,263.0 627.5,248.0 627.5,218.0 653.5,203.0 679.5,218.0" fill="rgb(174,174,174)" stroke="#676767" stroke-width="3" stroke-linejoin="round"/><path d="M637.5 216Q653.5 207 668.5 217" stroke="#E1E1E1" stroke-width="3" stroke-linecap="round" opacity=".72"/><polygon points="732.5,248.0 706.5,263.0 680.5,248.0 680.5,218.0 706.5,203.0 732.5,218.0" fill="rgb(166,166,166)" stroke="#676767" stroke-width="3" stroke-linejoin="round"/><path d="M690.5 216Q706.5 207 721.5 217" stroke="#E1E1E1" stroke-width="3" stroke-linecap="round" opacity=".72"/><polygon points="785.5,248.0 759.5,263.0 733.5,248.0 733.5,218.0 759.5,203.0 785.5,218.0" fill="rgb(156,156,156)" stroke="#676767" stroke-width="3" stroke-linejoin="round"/><path d="M743.5 216Q759.5 207 774.5 217" stroke="#E1E1E1" stroke-width="3" stroke-linecap="round" opacity=".72"/><polygon points="70.0,294.0 44.0,309.0 18.0,294.0 18.0,264.0 44.0,249.0 70.0,264.0" fill="rgb(179,179,179)" stroke="#676767" stroke-width="3" stroke-linejoin="round"/><path d="M28 262Q44 253 59 263" stroke="#E1E1E1" stroke-width="3" stroke-linecap="round" opacity=".72"/><polygon points="123.0,294.0 97.0,309.0 71.0,294.0 71.0,264.0 97.0,249.0 123.0,264.0" fill="rgb(185,185,185)" stroke="#676767" stroke-width="3" stroke-linejoin="round"/><path d="M81 262Q97 253 112 263" stroke="#E1E1E1" stroke-width="3" stroke-linecap="round" opacity=".72"/><polygon points="176.0,294.0 150.0,309.0 124.0,294.0 124.0,264.0 150.0,249.0 176.0,264.0" fill="rgb(190,190,190)" stroke="#676767" stroke-width="3" stroke-linejoin="round"/><path d="M134 262Q150 253 165 263" stroke="#E1E1E1" stroke-width="3" stroke-linecap="round" opacity=".72"/><polygon points="229.0,294.0 203.0,309.0 177.0,294.0 177.0,264.0 203.0,249.0 229.0,264.0" fill="rgb(194,194,194)" stroke="#676767" stroke-width="3" stroke-linejoin="round"/><path d="M187 262Q203 253 218 263" stroke="#E1E1E1" stroke-width="3" stroke-linecap="round" opacity=".72"/><polygon points="282.0,294.0 256.0,309.0 230.0,294.0 230.0,264.0 256.0,249.0 282.0,264.0" fill="rgb(196,196,196)" stroke="#676767" stroke-width="3" stroke-linejoin="round"/><path d="M240 262Q256 253 271 263" stroke="#E1E1E1" stroke-width="3" stroke-linecap="round" opacity=".72"/><polygon points="335.0,294.0 309.0,309.0 283.0,294.0 283.0,264.0 309.0,249.0 335.0,264.0" fill="rgb(197,197,197)" stroke="#676767" stroke-width="3" stroke-linejoin="round"/><path d="M293 262Q309 253 324 263" stroke="#E1E1E1" stroke-width="3" stroke-linecap="round" opacity=".72"/><polygon points="388.0,294.0 362.0,309.0 336.0,294.0 336.0,264.0 362.0,249.0 388.0,264.0" fill="rgb(197,197,197)" stroke="#676767" stroke-width="3" stroke-linejoin="round"/><path d="M346 262Q362 253 377 263" stroke="#E1E1E1" stroke-width="3" stroke-linecap="round" opacity=".72"/><polygon points="441.0,294.0 415.0,309.0 389.0,294.0 389.0,264.0 415.0,249.0 441.0,264.0" fill="rgb(196,196,196)" stroke="#676767" stroke-width="3" stroke-linejoin="round"/><path d="M399 262Q415 253 430 263" stroke="#E1E1E1" stroke-width="3" stroke-linecap="round" opacity=".72"/><polygon points="494.0,294.0 468.0,309.0 442.0,294.0 442.0,264.0 468.0,249.0 494.0,264.0" fill="rgb(193,193,193)" stroke="#676767" stroke-width="3" stroke-linejoin="round"/><path d="M452 262Q468 253 483 263" stroke="#E1E1E1" stroke-width="3" stroke-linecap="round" opacity=".72"/><polygon points="547.0,294.0 521.0,309.0 495.0,294.0 495.0,264.0 521.0,249.0 547.0,264.0" fill="rgb(189,189,189)" stroke="#676767" stroke-width="3" stroke-linejoin="round"/><path d="M505 262Q521 253 536 263" stroke="#E1E1E1" stroke-width="3" stroke-linecap="round" opacity=".72"/><polygon points="600.0,294.0 574.0,309.0 548.0,294.0 548.0,264.0 574.0,249.0 600.0,264.0" fill="rgb(184,184,184)" stroke="#676767" stroke-width="3" stroke-linejoin="round"/><path d="M558 262Q574 253 589 263" stroke="#E1E1E1" stroke-width="3" stroke-linecap="round" opacity=".72"/><polygon points="653.0,294.0 627.0,309.0 601.0,294.0 601.0,264.0 627.0,249.0 653.0,264.0" fill="rgb(177,177,177)" stroke="#676767" stroke-width="3" stroke-linejoin="round"/><path d="M611 262Q627 253 642 263" stroke="#E1E1E1" stroke-width="3" stroke-linecap="round" opacity=".72"/><polygon points="706.0,294.0 680.0,309.0 654.0,294.0 654.0,264.0 680.0,249.0 706.0,264.0" fill="rgb(169,169,169)" stroke="#676767" stroke-width="3" stroke-linejoin="round"/><path d="M664 262Q680 253 695 263" stroke="#E1E1E1" stroke-width="3" stroke-linecap="round" opacity=".72"/><polygon points="759.0,294.0 733.0,309.0 707.0,294.0 707.0,264.0 733.0,249.0 759.0,264.0" fill="rgb(160,160,160)" stroke="#676767" stroke-width="3" stroke-linejoin="round"/><path d="M717 262Q733 253 748 263" stroke="#E1E1E1" stroke-width="3" stroke-linecap="round" opacity=".72"/><polygon points="96.5,340.0 70.5,355.0 44.5,340.0 44.5,310.0 70.5,295.0 96.5,310.0" fill="rgb(180,180,180)" stroke="#676767" stroke-width="3" stroke-linejoin="round"/><path d="M54.5 308Q70.5 299 85.5 309" stroke="#E1E1E1" stroke-width="3" stroke-linecap="round" opacity=".72"/><polygon points="149.5,340.0 123.5,355.0 97.5,340.0 97.5,310.0 123.5,295.0 149.5,310.0" fill="rgb(185,185,185)" stroke="#676767" stroke-width="3" stroke-linejoin="round"/><path d="M107.5 308Q123.5 299 138.5 309" stroke="#E1E1E1" stroke-width="3" stroke-linecap="round" opacity=".72"/><polygon points="202.5,340.0 176.5,355.0 150.5,340.0 150.5,310.0 176.5,295.0 202.5,310.0" fill="rgb(190,190,190)" stroke="#676767" stroke-width="3" stroke-linejoin="round"/><path d="M160.5 308Q176.5 299 191.5 309" stroke="#E1E1E1" stroke-width="3" stroke-linecap="round" opacity=".72"/><polygon points="255.5,340.0 229.5,355.0 203.5,340.0 203.5,310.0 229.5,295.0 255.5,310.0" fill="rgb(193,193,193)" stroke="#676767" stroke-width="3" stroke-linejoin="round"/><path d="M213.5 308Q229.5 299 244.5 309" stroke="#E1E1E1" stroke-width="3" stroke-linecap="round" opacity=".72"/><polygon points="308.5,340.0 282.5,355.0 256.5,340.0 256.5,310.0 282.5,295.0 308.5,310.0" fill="rgb(195,195,195)" stroke="#676767" stroke-width="3" stroke-linejoin="round"/><path d="M266.5 308Q282.5 299 297.5 309" stroke="#E1E1E1" stroke-width="3" stroke-linecap="round" opacity=".72"/><polygon points="361.5,340.0 335.5,355.0 309.5,340.0 309.5,310.0 335.5,295.0 361.5,310.0" fill="rgb(195,195,195)" stroke="#676767" stroke-width="3" stroke-linejoin="round"/><path d="M319.5 308Q335.5 299 350.5 309" stroke="#E1E1E1" stroke-width="3" stroke-linecap="round" opacity=".72"/><polygon points="414.5,340.0 388.5,355.0 362.5,340.0 362.5,310.0 388.5,295.0 414.5,310.0" fill="rgb(195,195,195)" stroke="#676767" stroke-width="3" stroke-linejoin="round"/><path d="M372.5 308Q388.5 299 403.5 309" stroke="#E1E1E1" stroke-width="3" stroke-linecap="round" opacity=".72"/><polygon points="467.5,340.0 441.5,355.0 415.5,340.0 415.5,310.0 441.5,295.0 467.5,310.0" fill="rgb(193,193,193)" stroke="#676767" stroke-width="3" stroke-linejoin="round"/><path d="M425.5 308Q441.5 299 456.5 309" stroke="#E1E1E1" stroke-width="3" stroke-linecap="round" opacity=".72"/><polygon points="520.5,340.0 494.5,355.0 468.5,340.0 468.5,310.0 494.5,295.0 520.5,310.0" fill="rgb(189,189,189)" stroke="#676767" stroke-width="3" stroke-linejoin="round"/><path d="M478.5 308Q494.5 299 509.5 309" stroke="#E1E1E1" stroke-width="3" stroke-linecap="round" opacity=".72"/><polygon points="573.5,340.0 547.5,355.0 521.5,340.0 521.5,310.0 547.5,295.0 573.5,310.0" fill="rgb(184,184,184)" stroke="#676767" stroke-width="3" stroke-linejoin="round"/><path d="M531.5 308Q547.5 299 562.5 309" stroke="#E1E1E1" stroke-width="3" stroke-linecap="round" opacity=".72"/><polygon points="626.5,340.0 600.5,355.0 574.5,340.0 574.5,310.0 600.5,295.0 626.5,310.0" fill="rgb(178,178,178)" stroke="#676767" stroke-width="3" stroke-linejoin="round"/><path d="M584.5 308Q600.5 299 615.5 309" stroke="#E1E1E1" stroke-width="3" stroke-linecap="round" opacity=".72"/><polygon points="679.5,340.0 653.5,355.0 627.5,340.0 627.5,310.0 653.5,295.0 679.5,310.0" fill="rgb(171,171,171)" stroke="#676767" stroke-width="3" stroke-linejoin="round"/><path d="M637.5 308Q653.5 299 668.5 309" stroke="#E1E1E1" stroke-width="3" stroke-linecap="round" opacity=".72"/><polygon points="732.5,340.0 706.5,355.0 680.5,340.0 680.5,310.0 706.5,295.0 732.5,310.0" fill="rgb(162,162,162)" stroke="#676767" stroke-width="3" stroke-linejoin="round"/><path d="M690.5 308Q706.5 299 721.5 309" stroke="#E1E1E1" stroke-width="3" stroke-linecap="round" opacity=".72"/><polygon points="785.5,340.0 759.5,355.0 733.5,340.0 733.5,310.0 759.5,295.0 785.5,310.0" fill="rgb(153,153,153)" stroke="#676767" stroke-width="3" stroke-linejoin="round"/><path d="M743.5 308Q759.5 299 774.5 309" stroke="#E1E1E1" stroke-width="3" stroke-linecap="round" opacity=".72"/><polygon points="70.0,386.0 44.0,401.0 18.0,386.0 18.0,356.0 44.0,341.0 70.0,356.0" fill="rgb(173,173,173)" stroke="#676767" stroke-width="3" stroke-linejoin="round"/><path d="M28 354Q44 345 59 355" stroke="#E1E1E1" stroke-width="3" stroke-linecap="round" opacity=".72"/><polygon points="123.0,386.0 97.0,401.0 71.0,386.0 71.0,356.0 97.0,341.0 123.0,356.0" fill="rgb(180,180,180)" stroke="#676767" stroke-width="3" stroke-linejoin="round"/><path d="M81 354Q97 345 112 355" stroke="#E1E1E1" stroke-width="3" stroke-linecap="round" opacity=".72"/><polygon points="176.0,386.0 150.0,401.0 124.0,386.0 124.0,356.0 150.0,341.0 176.0,356.0" fill="rgb(185,185,185)" stroke="#676767" stroke-width="3" stroke-linejoin="round"/><path d="M134 354Q150 345 165 355" stroke="#E1E1E1" stroke-width="3" stroke-linecap="round" opacity=".72"/><polygon points="229.0,386.0 203.0,401.0 177.0,386.0 177.0,356.0 203.0,341.0 229.0,356.0" fill="rgb(189,189,189)" stroke="#676767" stroke-width="3" stroke-linejoin="round"/><path d="M187 354Q203 345 218 355" stroke="#E1E1E1" stroke-width="3" stroke-linecap="round" opacity=".72"/><polygon points="282.0,386.0 256.0,401.0 230.0,386.0 230.0,356.0 256.0,341.0 282.0,356.0" fill="rgb(191,191,191)" stroke="#676767" stroke-width="3" stroke-linejoin="round"/><path d="M240 354Q256 345 271 355" stroke="#E1E1E1" stroke-width="3" stroke-linecap="round" opacity=".72"/><polygon points="335.0,386.0 309.0,401.0 283.0,386.0 283.0,356.0 309.0,341.0 335.0,356.0" fill="rgb(192,192,192)" stroke="#676767" stroke-width="3" stroke-linejoin="round"/><path d="M293 354Q309 345 324 355" stroke="#E1E1E1" stroke-width="3" stroke-linecap="round" opacity=".72"/><polygon points="388.0,386.0 362.0,401.0 336.0,386.0 336.0,356.0 362.0,341.0 388.0,356.0" fill="rgb(192,192,192)" stroke="#676767" stroke-width="3" stroke-linejoin="round"/><path d="M346 354Q362 345 377 355" stroke="#E1E1E1" stroke-width="3" stroke-linecap="round" opacity=".72"/><polygon points="441.0,386.0 415.0,401.0 389.0,386.0 389.0,356.0 415.0,341.0 441.0,356.0" fill="rgb(191,191,191)" stroke="#676767" stroke-width="3" stroke-linejoin="round"/><path d="M399 354Q415 345 430 355" stroke="#E1E1E1" stroke-width="3" stroke-linecap="round" opacity=".72"/><polygon points="494.0,386.0 468.0,401.0 442.0,386.0 442.0,356.0 468.0,341.0 494.0,356.0" fill="rgb(188,188,188)" stroke="#676767" stroke-width="3" stroke-linejoin="round"/><path d="M452 354Q468 345 483 355" stroke="#E1E1E1" stroke-width="3" stroke-linecap="round" opacity=".72"/><polygon points="547.0,386.0 521.0,401.0 495.0,386.0 495.0,356.0 521.0,341.0 547.0,356.0" fill="rgb(184,184,184)" stroke="#676767" stroke-width="3" stroke-linejoin="round"/><path d="M505 354Q521 345 536 355" stroke="#E1E1E1" stroke-width="3" stroke-linecap="round" opacity=".72"/><polygon points="600.0,386.0 574.0,401.0 548.0,386.0 548.0,356.0 574.0,341.0 600.0,356.0" fill="rgb(178,178,178)" stroke="#676767" stroke-width="3" stroke-linejoin="round"/><path d="M558 354Q574 345 589 355" stroke="#E1E1E1" stroke-width="3" stroke-linecap="round" opacity=".72"/><polygon points="653.0,386.0 627.0,401.0 601.0,386.0 601.0,356.0 627.0,341.0 653.0,356.0" fill="rgb(172,172,172)" stroke="#676767" stroke-width="3" stroke-linejoin="round"/><path d="M611 354Q627 345 642 355" stroke="#E1E1E1" stroke-width="3" stroke-linecap="round" opacity=".72"/><polygon points="706.0,386.0 680.0,401.0 654.0,386.0 654.0,356.0 680.0,341.0 706.0,356.0" fill="rgb(164,164,164)" stroke="#676767" stroke-width="3" stroke-linejoin="round"/><path d="M664 354Q680 345 695 355" stroke="#E1E1E1" stroke-width="3" stroke-linecap="round" opacity=".72"/><polygon points="759.0,386.0 733.0,401.0 707.0,386.0 707.0,356.0 733.0,341.0 759.0,356.0" fill="rgb(155,155,155)" stroke="#676767" stroke-width="3" stroke-linejoin="round"/><path d="M717 354Q733 345 748 355" stroke="#E1E1E1" stroke-width="3" stroke-linecap="round" opacity=".72"/><polygon points="96.5,432.0 70.5,447.0 44.5,432.0 44.5,402.0 70.5,387.0 96.5,402.0" fill="rgb(173,173,173)" stroke="#676767" stroke-width="3" stroke-linejoin="round"/><path d="M54.5 400Q70.5 391 85.5 401" stroke="#E1E1E1" stroke-width="3" stroke-linecap="round" opacity=".72"/><polygon points="149.5,432.0 123.5,447.0 97.5,432.0 97.5,402.0 123.5,387.0 149.5,402.0" fill="rgb(178,178,178)" stroke="#676767" stroke-width="3" stroke-linejoin="round"/><path d="M107.5 400Q123.5 391 138.5 401" stroke="#E1E1E1" stroke-width="3" stroke-linecap="round" opacity=".72"/><polygon points="202.5,432.0 176.5,447.0 150.5,432.0 150.5,402.0 176.5,387.0 202.5,402.0" fill="rgb(183,183,183)" stroke="#676767" stroke-width="3" stroke-linejoin="round"/><path d="M160.5 400Q176.5 391 191.5 401" stroke="#E1E1E1" stroke-width="3" stroke-linecap="round" opacity=".72"/><polygon points="255.5,432.0 229.5,447.0 203.5,432.0 203.5,402.0 229.5,387.0 255.5,402.0" fill="rgb(186,186,186)" stroke="#676767" stroke-width="3" stroke-linejoin="round"/><path d="M213.5 400Q229.5 391 244.5 401" stroke="#E1E1E1" stroke-width="3" stroke-linecap="round" opacity=".72"/><polygon points="308.5,432.0 282.5,447.0 256.5,432.0 256.5,402.0 282.5,387.0 308.5,402.0" fill="rgb(188,188,188)" stroke="#676767" stroke-width="3" stroke-linejoin="round"/><path d="M266.5 400Q282.5 391 297.5 401" stroke="#E1E1E1" stroke-width="3" stroke-linecap="round" opacity=".72"/><polygon points="361.5,432.0 335.5,447.0 309.5,432.0 309.5,402.0 335.5,387.0 361.5,402.0" fill="rgb(188,188,188)" stroke="#676767" stroke-width="3" stroke-linejoin="round"/><path d="M319.5 400Q335.5 391 350.5 401" stroke="#E1E1E1" stroke-width="3" stroke-linecap="round" opacity=".72"/><polygon points="414.5,432.0 388.5,447.0 362.5,432.0 362.5,402.0 388.5,387.0 414.5,402.0" fill="rgb(187,187,187)" stroke="#676767" stroke-width="3" stroke-linejoin="round"/><path d="M372.5 400Q388.5 391 403.5 401" stroke="#E1E1E1" stroke-width="3" stroke-linecap="round" opacity=".72"/><polygon points="467.5,432.0 441.5,447.0 415.5,432.0 415.5,402.0 441.5,387.0 467.5,402.0" fill="rgb(185,185,185)" stroke="#676767" stroke-width="3" stroke-linejoin="round"/><path d="M425.5 400Q441.5 391 456.5 401" stroke="#E1E1E1" stroke-width="3" stroke-linecap="round" opacity=".72"/><polygon points="520.5,432.0 494.5,447.0 468.5,432.0 468.5,402.0 494.5,387.0 520.5,402.0" fill="rgb(182,182,182)" stroke="#676767" stroke-width="3" stroke-linejoin="round"/><path d="M478.5 400Q494.5 391 509.5 401" stroke="#E1E1E1" stroke-width="3" stroke-linecap="round" opacity=".72"/><polygon points="573.5,432.0 547.5,447.0 521.5,432.0 521.5,402.0 547.5,387.0 573.5,402.0" fill="rgb(177,177,177)" stroke="#676767" stroke-width="3" stroke-linejoin="round"/><path d="M531.5 400Q547.5 391 562.5 401" stroke="#E1E1E1" stroke-width="3" stroke-linecap="round" opacity=".72"/><polygon points="626.5,432.0 600.5,447.0 574.5,432.0 574.5,402.0 600.5,387.0 626.5,402.0" fill="rgb(171,171,171)" stroke="#676767" stroke-width="3" stroke-linejoin="round"/><path d="M584.5 400Q600.5 391 615.5 401" stroke="#E1E1E1" stroke-width="3" stroke-linecap="round" opacity=".72"/><polygon points="679.5,432.0 653.5,447.0 627.5,432.0 627.5,402.0 653.5,387.0 679.5,402.0" fill="rgb(164,164,164)" stroke="#676767" stroke-width="3" stroke-linejoin="round"/><path d="M637.5 400Q653.5 391 668.5 401" stroke="#E1E1E1" stroke-width="3" stroke-linecap="round" opacity=".72"/><polygon points="732.5,432.0 706.5,447.0 680.5,432.0 680.5,402.0 706.5,387.0 732.5,402.0" fill="rgb(155,155,155)" stroke="#676767" stroke-width="3" stroke-linejoin="round"/><path d="M690.5 400Q706.5 391 721.5 401" stroke="#E1E1E1" stroke-width="3" stroke-linecap="round" opacity=".72"/><polygon points="785.5,432.0 759.5,447.0 733.5,432.0 733.5,402.0 759.5,387.0 785.5,402.0" fill="rgb(145,145,145)" stroke="#676767" stroke-width="3" stroke-linejoin="round"/><path d="M743.5 400Q759.5 391 774.5 401" stroke="#E1E1E1" stroke-width="3" stroke-linecap="round" opacity=".72"/><polygon points="70.0,478.0 44.0,493.0 18.0,478.0 18.0,448.0 44.0,433.0 70.0,448.0" fill="rgb(164,164,164)" stroke="#676767" stroke-width="3" stroke-linejoin="round"/><path d="M28 446Q44 437 59 447" stroke="#E1E1E1" stroke-width="3" stroke-linecap="round" opacity=".72"/><polygon points="123.0,478.0 97.0,493.0 71.0,478.0 71.0,448.0 97.0,433.0 123.0,448.0" fill="rgb(170,170,170)" stroke="#676767" stroke-width="3" stroke-linejoin="round"/><path d="M81 446Q97 437 112 447" stroke="#E1E1E1" stroke-width="3" stroke-linecap="round" opacity=".72"/><polygon points="176.0,478.0 150.0,493.0 124.0,478.0 124.0,448.0 150.0,433.0 176.0,448.0" fill="rgb(176,176,176)" stroke="#676767" stroke-width="3" stroke-linejoin="round"/><path d="M134 446Q150 437 165 447" stroke="#E1E1E1" stroke-width="3" stroke-linecap="round" opacity=".72"/><polygon points="229.0,478.0 203.0,493.0 177.0,478.0 177.0,448.0 203.0,433.0 229.0,448.0" fill="rgb(179,179,179)" stroke="#676767" stroke-width="3" stroke-linejoin="round"/><path d="M187 446Q203 437 218 447" stroke="#E1E1E1" stroke-width="3" stroke-linecap="round" opacity=".72"/><polygon points="282.0,478.0 256.0,493.0 230.0,478.0 230.0,448.0 256.0,433.0 282.0,448.0" fill="rgb(182,182,182)" stroke="#676767" stroke-width="3" stroke-linejoin="round"/><path d="M240 446Q256 437 271 447" stroke="#E1E1E1" stroke-width="3" stroke-linecap="round" opacity=".72"/><polygon points="335.0,478.0 309.0,493.0 283.0,478.0 283.0,448.0 309.0,433.0 335.0,448.0" fill="rgb(183,183,183)" stroke="#676767" stroke-width="3" stroke-linejoin="round"/><path d="M293 446Q309 437 324 447" stroke="#E1E1E1" stroke-width="3" stroke-linecap="round" opacity=".72"/><polygon points="388.0,478.0 362.0,493.0 336.0,478.0 336.0,448.0 362.0,433.0 388.0,448.0" fill="rgb(183,183,183)" stroke="#676767" stroke-width="3" stroke-linejoin="round"/><path d="M346 446Q362 437 377 447" stroke="#E1E1E1" stroke-width="3" stroke-linecap="round" opacity=".72"/><polygon points="441.0,478.0 415.0,493.0 389.0,478.0 389.0,448.0 415.0,433.0 441.0,448.0" fill="rgb(181,181,181)" stroke="#676767" stroke-width="3" stroke-linejoin="round"/><path d="M399 446Q415 437 430 447" stroke="#E1E1E1" stroke-width="3" stroke-linecap="round" opacity=".72"/><polygon points="494.0,478.0 468.0,493.0 442.0,478.0 442.0,448.0 468.0,433.0 494.0,448.0" fill="rgb(179,179,179)" stroke="#676767" stroke-width="3" stroke-linejoin="round"/><path d="M452 446Q468 437 483 447" stroke="#E1E1E1" stroke-width="3" stroke-linecap="round" opacity=".72"/><polygon points="547.0,478.0 521.0,493.0 495.0,478.0 495.0,448.0 521.0,433.0 547.0,448.0" fill="rgb(175,175,175)" stroke="#676767" stroke-width="3" stroke-linejoin="round"/><path d="M505 446Q521 437 536 447" stroke="#E1E1E1" stroke-width="3" stroke-linecap="round" opacity=".72"/><polygon points="600.0,478.0 574.0,493.0 548.0,478.0 548.0,448.0 574.0,433.0 600.0,448.0" fill="rgb(169,169,169)" stroke="#676767" stroke-width="3" stroke-linejoin="round"/><path d="M558 446Q574 437 589 447" stroke="#E1E1E1" stroke-width="3" stroke-linecap="round" opacity=".72"/><polygon points="653.0,478.0 627.0,493.0 601.0,478.0 601.0,448.0 627.0,433.0 653.0,448.0" fill="rgb(163,163,163)" stroke="#676767" stroke-width="3" stroke-linejoin="round"/><path d="M611 446Q627 437 642 447" stroke="#E1E1E1" stroke-width="3" stroke-linecap="round" opacity=".72"/><polygon points="706.0,478.0 680.0,493.0 654.0,478.0 654.0,448.0 680.0,433.0 706.0,448.0" fill="rgb(155,155,155)" stroke="#676767" stroke-width="3" stroke-linejoin="round"/><path d="M664 446Q680 437 695 447" stroke="#E1E1E1" stroke-width="3" stroke-linecap="round" opacity=".72"/><polygon points="759.0,478.0 733.0,493.0 707.0,478.0 707.0,448.0 733.0,433.0 759.0,448.0" fill="rgb(145,145,145)" stroke="#676767" stroke-width="3" stroke-linejoin="round"/><path d="M717 446Q733 437 748 447" stroke="#E1E1E1" stroke-width="3" stroke-linecap="round" opacity=".72"/><polygon points="96.5,524.0 70.5,539.0 44.5,524.0 44.5,494.0 70.5,479.0 96.5,494.0" fill="rgb(161,161,161)" stroke="#676767" stroke-width="3" stroke-linejoin="round"/><path d="M54.5 492Q70.5 483 85.5 493" stroke="#E1E1E1" stroke-width="3" stroke-linecap="round" opacity=".72"/><polygon points="149.5,524.0 123.5,539.0 97.5,524.0 97.5,494.0 123.5,479.0 149.5,494.0" fill="rgb(167,167,167)" stroke="#676767" stroke-width="3" stroke-linejoin="round"/><path d="M107.5 492Q123.5 483 138.5 493" stroke="#E1E1E1" stroke-width="3" stroke-linecap="round" opacity=".72"/><polygon points="202.5,524.0 176.5,539.0 150.5,524.0 150.5,494.0 176.5,479.0 202.5,494.0" fill="rgb(172,172,172)" stroke="#676767" stroke-width="3" stroke-linejoin="round"/><path d="M160.5 492Q176.5 483 191.5 493" stroke="#E1E1E1" stroke-width="3" stroke-linecap="round" opacity=".72"/><polygon points="255.5,524.0 229.5,539.0 203.5,524.0 203.5,494.0 229.5,479.0 255.5,494.0" fill="rgb(175,175,175)" stroke="#676767" stroke-width="3" stroke-linejoin="round"/><path d="M213.5 492Q229.5 483 244.5 493" stroke="#E1E1E1" stroke-width="3" stroke-linecap="round" opacity=".72"/><polygon points="308.5,524.0 282.5,539.0 256.5,524.0 256.5,494.0 282.5,479.0 308.5,494.0" fill="rgb(177,177,177)" stroke="#676767" stroke-width="3" stroke-linejoin="round"/><path d="M266.5 492Q282.5 483 297.5 493" stroke="#E1E1E1" stroke-width="3" stroke-linecap="round" opacity=".72"/><polygon points="361.5,524.0 335.5,539.0 309.5,524.0 309.5,494.0 335.5,479.0 361.5,494.0" fill="rgb(177,177,177)" stroke="#676767" stroke-width="3" stroke-linejoin="round"/><path d="M319.5 492Q335.5 483 350.5 493" stroke="#E1E1E1" stroke-width="3" stroke-linecap="round" opacity=".72"/><polygon points="414.5,524.0 388.5,539.0 362.5,524.0 362.5,494.0 388.5,479.0 414.5,494.0" fill="rgb(176,176,176)" stroke="#676767" stroke-width="3" stroke-linejoin="round"/><path d="M372.5 492Q388.5 483 403.5 493" stroke="#E1E1E1" stroke-width="3" stroke-linecap="round" opacity=".72"/><polygon points="467.5,524.0 441.5,539.0 415.5,524.0 415.5,494.0 441.5,479.0 467.5,494.0" fill="rgb(174,174,174)" stroke="#676767" stroke-width="3" stroke-linejoin="round"/><path d="M425.5 492Q441.5 483 456.5 493" stroke="#E1E1E1" stroke-width="3" stroke-linecap="round" opacity=".72"/><polygon points="520.5,524.0 494.5,539.0 468.5,524.0 468.5,494.0 494.5,479.0 520.5,494.0" fill="rgb(171,171,171)" stroke="#676767" stroke-width="3" stroke-linejoin="round"/><path d="M478.5 492Q494.5 483 509.5 493" stroke="#E1E1E1" stroke-width="3" stroke-linecap="round" opacity=".72"/><polygon points="573.5,524.0 547.5,539.0 521.5,524.0 521.5,494.0 547.5,479.0 573.5,494.0" fill="rgb(166,166,166)" stroke="#676767" stroke-width="3" stroke-linejoin="round"/><path d="M531.5 492Q547.5 483 562.5 493" stroke="#E1E1E1" stroke-width="3" stroke-linecap="round" opacity=".72"/><polygon points="626.5,524.0 600.5,539.0 574.5,524.0 574.5,494.0 600.5,479.0 626.5,494.0" fill="rgb(160,160,160)" stroke="#676767" stroke-width="3" stroke-linejoin="round"/><path d="M584.5 492Q600.5 483 615.5 493" stroke="#E1E1E1" stroke-width="3" stroke-linecap="round" opacity=".72"/><polygon points="679.5,524.0 653.5,539.0 627.5,524.0 627.5,494.0 653.5,479.0 679.5,494.0" fill="rgb(153,153,153)" stroke="#676767" stroke-width="3" stroke-linejoin="round"/><path d="M637.5 492Q653.5 483 668.5 493" stroke="#E1E1E1" stroke-width="3" stroke-linecap="round" opacity=".72"/><polygon points="732.5,524.0 706.5,539.0 680.5,524.0 680.5,494.0 706.5,479.0 732.5,494.0" fill="rgb(144,144,144)" stroke="#676767" stroke-width="3" stroke-linejoin="round"/><path d="M690.5 492Q706.5 483 721.5 493" stroke="#E1E1E1" stroke-width="3" stroke-linecap="round" opacity=".72"/><polygon points="785.5,524.0 759.5,539.0 733.5,524.0 733.5,494.0 759.5,479.0 785.5,494.0" fill="rgb(134,134,134)" stroke="#676767" stroke-width="3" stroke-linejoin="round"/><path d="M743.5 492Q759.5 483 774.5 493" stroke="#E1E1E1" stroke-width="3" stroke-linecap="round" opacity=".72"/><path d="M213 220Q208.66666666666666 199.5 200 179" stroke="#333333" stroke-width="4" stroke-linecap="round"/><circle cx="213" cy="220" r="5" fill="#5B5B5B"/><path d="M347 174Q349.0 153.0 353 132" stroke="#333333" stroke-width="4" stroke-linecap="round"/><circle cx="347" cy="174" r="5" fill="#5B5B5B"/><path d="M506 220Q510.6666666666667 201.5 520 183" stroke="#333333" stroke-width="4" stroke-linecap="round"/><circle cx="506" cy="220" r="5" fill="#5B5B5B"/><path d="M638 267Q645.3333333333334 252.5 660 238" stroke="#333333" stroke-width="4" stroke-linecap="round"/><circle cx="638" cy="267" r="5" fill="#5B5B5B"/><path d="M294 358Q291.0 336.5 285 315" stroke="#333333" stroke-width="4" stroke-linecap="round"/><circle cx="294" cy="358" r="5" fill="#5B5B5B"/><path d="M453 405Q457.0 385.5 465 366" stroke="#333333" stroke-width="4" stroke-linecap="round"/><circle cx="453" cy="405" r="5" fill="#5B5B5B"/><path d="M160 315Q154.33333333333334 296.0 143 277" stroke="#333333" stroke-width="4" stroke-linecap="round"/><circle cx="160" cy="315" r="5" fill="#5B5B5B"/><path d="M559 359Q564.3333333333334 343.0 575 327" stroke="#333333" stroke-width="4" stroke-linecap="round"/><circle cx="559" cy="359" r="5" fill="#5B5B5B"/><path d="M373 312Q374.0 290.5 376 269" stroke="#333333" stroke-width="4" stroke-linecap="round"/><circle cx="373" cy="312" r="5" fill="#5B5B5B"/><path d="M531 126Q535.6666666666666 108.0 545 90" stroke="#333333" stroke-width="4" stroke-linecap="round"/><circle cx="531" cy="126" r="5" fill="#5B5B5B"/><path d="M241 451Q236.66666666666666 436.5 228 422" stroke="#333333" stroke-width="4" stroke-linecap="round"/><circle cx="241" cy="451" r="5" fill="#5B5B5B"/></g>
<path d="M103 306C111 174 238 89 400 85C563 81 694 171 701 302C708 425 577 503 406 506C238 509 97 432 103 306Z" stroke="#686868" stroke-width="5"/>
</svg>